<?xml version="1.0" encoding="UTF-8"?>
<svg id="a" xmlns="http://www.w3.org/2000/svg" viewBox="0 0 150 150">
  <defs>
    <style>
      .cls-1 {
        fill: #67b43c;
      }

      .cls-2, .cls-3 {
        fill: #fff;
      }

      .cls-4 {
        fill: #e62f2e;
      }

      .cls-3, .cls-5 {
        fill-rule: evenodd;
      }

      .cls-6 {
        fill: #f7a412;
      }

      .cls-7 {
        fill: #006632;
      }

      .cls-8 {
        fill: #00487d;
      }

      .cls-5, .cls-9 {
        fill: #fbe900;
      }

      .cls-10 {
        fill: none;
      }
    </style>
  </defs>
  <g id="b">
    <g id="c">
      <path id="d" class="cls-10" d="M0,0H150V150H0V0Z"/>
    </g>
  </g>
  <path id="path144" class="cls-7" d="M70.69,11.88h0c-26.24,8.4-39.56,30.77-39.56,65.26v52.26s4.36-33.62,39.56-43.3V11.88Z"/>
  <path id="path154" class="cls-4" d="M73.63,21.7h0s19.98-7.53,48.44-9.19c0,0-.08,23.79-.79,43.14-2.46,61.06-57,29.66-83.71,62.17,5.39-14.12,23.62-24.11,36.07-26.57V21.7Z"/>
  <path id="path164" class="cls-7" d="M66.25,108.94h0s-29.01,2.3-31.47,18.87c-1.9,12.93,31.47,13.32,31.47,13.32v-32.2Z"/>
  <path id="path174" class="cls-1" d="M32.32,60.25h0c6.02-14.04,16.17-28.39,38.37-37.35V11.88c-21.72,6.97-34.56,23.47-38.37,48.37Z"/>
  <path id="path184" class="cls-6" d="M71.41,85.7h0v.4s0,.08-.08,.08h-.55l-.08-.08v-7.14c.24,0,.48,.08,.71,.08v6.66Zm-.95-.08h0c-8.32-.48-15.54-4.92-19.98-11.34,0-.08-.08-.16-.08-.16h0c.24-.16,.4-.24,.64-.32,4.28,6.34,11.26,10.63,19.34,11.18l.08,.63Zm-21.4-13.32h0c-.08,0-.16-.08-.24-.08,0-.08-.24-.55-.24-.55h-.08c.08-.16,.08-.32,.24-.4-1.59-3.09-2.54-6.5-2.77-10.07,.24-.16,.48-.24,.71-.24,.16,3.49,1.11,6.82,2.54,9.83,.4-.24,.79-.48,1.35-.71-1.43-2.86-2.3-6.11-2.46-9.44h.71c.16,3.25,1.03,6.42,2.38,9.2,.87-.32,1.82-.71,2.77-.95,.87-.24,1.82-.48,2.78-.71,.08,.24,.16,.48,.24,.71-.95,.16-1.9,.4-2.85,.71h-.16q-.08,.08-.16,.08h0q-.08,0-.16,.08h-.24c-.08,.08-.16,.08-.24,.16h-.24c0,.08-.08,.08-.16,.08h0q-.08,0-.16,.08c-.08,0-.24,.08-.32,.08h0c-.24,.16-.55,.24-.79,.32-.24,.08-.4,.16-.63,.32h-.08s-.08,0-.08,.08h-.08c-.16,.08-.32,.16-.48,.24l-.08,.08h-.08s-.08,0-.08,.08c-.08,.08-.24,.08-.32,.16-.24,.16-.48,.32-.55,.48v.08h0c-.08,.08-.08,.16-.08,.24,0,0,0,.08,.08,.08h0Zm1.19,1.67h0c-.08,.08-.16,.24,0,.32-.08,0-.24-.08-.24-.16-.08-.16-.32-.48-.32-.48v-.08c0-.08,.08-.16,.16-.24v-.08h0c.16-.08,.32-.24,.55-.4v-.08h.08c.08-.08,.16-.08,.16-.08h0l.08-.08h.08v-.08q.08,0,.16-.08h.08c.08-.08,.24-.16,.4-.24,.08,0,.16-.08,.24-.08,.24-.08,.4-.24,.63-.32,.08,0,.16-.08,.24-.08s.08,0,.16-.08h0c.08,0,.16,0,.24-.08h.16c.08-.08,.16-.08,.24-.16h.16c.16-.08,.24-.08,.32-.08v-.08h.16c.08,0,.16-.08,.32-.08h0c.08,0,.08-.08,.08-.08h.08q.08,0,.16-.08c1.03-.24,2.06-.48,3.09-.71,.08,.24,.24,.4,.4,.63-1.19,.24-2.3,.48-3.33,.79-1.66,.48-3.96,1.43-4.52,2.22h0Zm-4.28-13.16h0c0,.08-.08,.16-.08,.16-.08,.08-.24,.32-.08,.48-.08-.08-.24-.16-.24-.24v-.71h0c.08-.16,.16-.32,.32-.4q0-.08,.08-.08c.16-.16,.4-.32,.63-.48,0,0,.08,0,.08-.08h.08l.08-.08h.08c0-.08,.08-.08,.08-.08h0q.08,0,.08-.08h0c.08,0,.16,0,.24-.08h0q.08,0,.08-.08h.16c0-.08,.08-.08,.08-.08h.16v-.08c.08,0,.16,0,.24-.08h0c.24-.08,.55-.24,.79-.32h.16c0-.08,.08-.08,.08-.08h.08s.08-.08,.16-.08c0,0,.08,0,.16-.08h.16v-.08h.24l.08-.08h.16s.08,0,.08-.08h.16l.08-.08h.24q.08-.08,.16-.08h.08s.08,0,.08-.08h.24l.08-.08h.08c.08,0,.16,0,.16-.08h.24c.08-.08,.16-.08,.24-.08h0c.08,0,.08-.08,.16-.08h.16c.08,0,.08-.08,.08-.08h.24s.08,0,.08-.08h.32l.08-.08h.24s.08,0,.08-.08h.24s.08,0,.08-.08h.32l.08-.08h.32q.08-.08,.16-.08h.32c.24-.08,.55-.16,.87-.24v.79c-.32,0-.55,.08-.79,.08-2.14,.48-4.44,1.03-6.26,1.74-.16,.08-.4,.16-.63,.24-.55,.24-1.11,.55-1.43,.79-.24,.16-.48,.24-.63,.4q0,.08-.08,.08h0Zm52.8-.32h0v.71c0,.08-.16,.16-.24,.24,.16-.16,0-.4-.08-.48,0,0-.08-.08-.08-.16h-.08v-.08c-.08,0-.08-.08-.16-.08-.08-.08-.24-.24-.48-.32-.4-.24-.87-.48-1.43-.71q-.08-.08-.16-.08c-.16-.08-.32-.16-.48-.24h0c-1.82-.71-4.12-1.27-6.26-1.74-.24,0-.48-.08-.71-.08v-.79c.24,.08,.55,.16,.79,.24h.32q.08,0,.16,.08h.32l.08,.08h.32c0,.08,.08,.08,.08,.08h.24c0,.08,.08,.08,.08,.08h.24l.08,.08h.32c0,.08,.08,.08,.08,.08h.24s0,.08,.08,.08h.16c.08,0,.16,.08,.24,.08h0q.08,0,.16,.08h.24q.08,.08,.16,.08h0q.08,0,.16,.08h.24c0,.08,.08,.08,.08,.08h.08q.08,0,.16,.08h.24l.08,.08h.16l.08,.08h.16q.08,.08,.16,.08h0c.16,0,.24,.08,.32,.08,0,0,.08,0,.08,.08h.16l.08,.08h.08s.08,0,.08,.08h.16c.24,.08,.55,.24,.71,.32h.16q0,.08,.08,.08h.08c0,.08,.08,.08,.08,.08h.08s.08,0,.08,.08h.16v.08h.08l.08,.08h.08c.08,0,.08,.08,.16,.08h.08v.08h.08c.08,0,.08,.08,.08,.08h.08l.08,.08c.24,.16,.48,.32,.63,.48h.08c.16,.16,.24,.32,.32,.48h0Zm0-2.3h0v.71c0,.08-.08,.16-.16,.16,.08-.08,0-.24-.16-.4l-.08-.08h0c-.24-.24-.4-.4-.71-.55h-.08v-.08h-.08s-.08,0-.08-.08h-.08l-.08-.08h-.08v-.08h-.16l-.08-.08h-.08l-.08-.08h0s-.08,0-.08-.08h-.16l-.08-.08h-.08c-.08,0-.08-.08-.16-.08h0c-.24-.08-.48-.24-.79-.32q-.08,0-.16-.08h-.16v-.08h-.24s-.08-.08-.16-.08h0s-.08-.08-.16-.08-.08,0-.16-.08h0c-.16,0-.24-.08-.4-.08h0c-.08,0-.08-.08-.16-.08h-.24c0-.08-.08-.08-.16-.08h0c-.08,0-.08-.08-.16-.08h0c-.08,0-.16,0-.24-.08h0c-.08,0-.24-.08-.4-.08h0s-.08,0-.16-.08h-.24c0-.08-.08-.08-.16-.08s-.16,0-.16-.08h-.24c-.08-.08-.16-.08-.16-.08h-.24v-.08h-.24c-.08,0-.08-.08-.16-.08h-.24c-.08,0-.08-.08-.16-.08h-.24v-.08h-.4q-.08-.08-.16-.08h-.24c-.08-.08-.16-.08-.16-.08-.24-.08-.48-.08-.71-.16v-.71c.24,.08,.55,.08,.79,.16,2.3,.48,4.28,1.03,5.95,1.59-.4-2.54-1.11-4.92-2.22-7.06l-.71-1.43h0s-.08,0-.08-.08h.79c1.51,2.7,2.54,5.63,2.93,8.8,.55,.24,1.11,.55,1.51,.79-.24-3.41-1.19-6.58-2.7-9.44,.32,.08,.56,.16,.87,.24h0c0,.08,.08,.16,.08,.24,1.43,2.85,2.3,6.03,2.46,9.44,.24,.16,.4,.32,.48,.48h0Zm-.4,3.01h0c-.08,.08-.08,.24-.08,.4-.24,3.33-1.19,6.58-2.62,9.44,.16,.4,.24,.71,.16,.95,0,0-.24,.32-.4,.48-.08,.16-.08,.24-.32,.24,.16-.08,.4-.32,.24-.71v-.24h0c-.08-.08-.16-.16-.24-.32-.16-.24-.4-.55-.64-.87h-.08v-.08h0l-.08-.08h0c-.32-.4-.71-.71-1.11-1.11h0c0-.08-.08-.08-.08-.16h0c-.16-.08-.24-.24-.4-.32h0q-.08-.08-.16-.16h0c-.16-.08-.24-.24-.4-.32v-.08c-.08,0-.08-.08-.16-.08h0c-.16-.16-.32-.24-.48-.4h0l-.08-.08q-.08,0-.08-.08s-.08,0-.16-.08h0c-.08-.08-.16-.16-.24-.24q-.08,0-.08-.08s-.08,0-.08-.08h-.08c0-.08-.08-.08-.16-.16h0s-.08-.08-.16-.08c0-.08-.08-.08-.16-.16h0q-.08-.08-.16-.16h0c-.08,0-.08-.08-.16-.08h0c-.08-.08-.16-.08-.16-.16h0c-.08-.08-.16-.08-.16-.16h-.08l-.08-.08c-.08,0-.08-.08-.08-.08,0,0-.08,0-.08-.08h-.08q-.08-.08-.16-.16h0q-.08-.08-.16-.08c0-.08-.08-.08-.08-.08l-.08-.08s-.08,0-.08-.08c0,0-.08,0-.08-.08h-.08q-.08-.08-.16-.16c.08-.24,.08-.55,.08-.87,2.14,1.59,3.96,3.01,5.23,4.28,.79-1.9,1.35-3.97,1.67-6.03v-.16h0c0-.08,0-.16,.08-.24v-.63s0-.08,.08-.16v-.79h.71c-.16,3.01-.87,5.87-1.98,8.49,.4,.48,.79,.87,1.03,1.27,1.35-2.93,2.22-6.11,2.38-9.52,.24,.08,.48,.16,.71,.32h0Zm-5.63,14.59h0l-.16,.16-.08,.08-.16,.16c-4.52,5.47-11.18,9.04-18.71,9.52v.4h0s0,.08-.08,.08h-.55l-.08-.08v-7.06c.24,0,.48-.08,.71-.08v3.89c5.87-.4,11.1-2.85,14.98-6.74h0c.08-.08,.16-.16,.24-.16v-.08c.48-.48,.95-.95,1.35-1.51,.24,.08,.48,.16,.71,.24-4.12,5.08-10.31,8.49-17.28,8.88v1.51c7.53-.4,14.19-4.12,18.63-9.67,.24,.16,.4,.32,.48,.48Zm.71-.71h0c.08,.16,.08,.32,0,.4,0,0-.24,.4-.32,.48s-.24,.24-.48,.32c.08-.08,.48-.08,.24-.71,0-.08,0-.16-.08-.24-.08-.08-.16-.24-.24-.4h0c-.24-.32-.63-.71-1.03-1.19-.16-.08-.32-.24-.48-.4-1.03-.95-2.46-2.14-4.2-3.49,.16-.16,.24-.4,.32-.64,2.06,1.51,3.81,2.93,4.92,3.97,.08,.08,.16,.16,.24,.24v.08h.08v.08h.08v.08h0q.08,0,.08,.08h0v.08h.08l.08,.08h0c.08,.08,.08,.16,.16,.16h0v.08h.08v.08h0c.24,.24,.32,.48,.4,.63q0,.08,.08,.08h0v.08s0,.08,0,.08Zm-22.75-39.66h0v-2.54c0-.07,.08-.07,.08-.07h.55q.08,0,.08,.07v7.85h-.71v-5.32Zm-25.13,23.48h0v-.71h0c.08-.16,.24-.32,.48-.48,.16-2.78,.79-5.47,1.74-8.01h0c.08,0,.08-.08,.08-.08q0-.08,.08-.16h0c0-.08,.08-.16,.08-.24s0-.08,.08-.08,.32,.08,.63,.24c-1.11,2.38-1.74,5.07-1.98,7.85,.4-.24,.95-.55,1.51-.79,.32-2.22,.87-4.28,1.74-6.26,.16,.16,.32,.32,.48,.55-.16,.32-.24,.71-.4,1.03v.08c-.48,1.35-.87,2.85-1.11,4.36,1.67-.55,3.65-1.11,5.95-1.59,.24-.08,.55-.08,.87-.16v.71c-.32,.08-.55,.08-.79,.16,0,0-.08,0-.16,.08h-.24q-.08,0-.16,.08h-.4v.08h-.24c-.08,0-.08,.08-.16,.08h-.24c-.08,0-.08,.08-.16,.08h-.24c-.08,.08-.16,.08-.16,.08-.08,0-.16,0-.24,.08h-.16c-.08,.08-.16,.08-.24,.08s-.08,0-.16,.08h-.24c-.08,0-.08,.08-.16,.08h0c-.16,0-.32,.08-.4,.08-.08,.08-.16,.08-.24,.08h0s-.08,.08-.16,.08h0c-.08,0-.16,0-.16,.08h-.24c-.08,0-.08,.08-.16,.08h0c-.16,0-.24,.08-.4,.08h0q-.08,.08-.16,.08h0c-.08,0-.08,.08-.16,.08h0c-.16,.08-.24,.08-.4,.08v.08h-.16s-.08,.08-.16,.08c-.24,.08-.48,.16-.71,.32h-.08c-.08,0-.08,.08-.08,.08h-.08s-.08,0-.16,.08h-.16q0,.08-.08,.08l-.08,.08h-.08q-.08,.08-.16,.08h0s-.08,.08-.16,.08h0l-.08,.08h0c-.08,0-.16,.08-.16,.08q-.08,0-.08,.08h-.08c-.32,.16-.48,.32-.71,.55h0c-.16,.16-.4,.32-.24,.48-.08,0-.16-.08-.16-.16h0Zm25.13-25.61h0Zm24.5,13.56h0c.24,.16,.48,.24,.55,.4,0,0,.32,.48,.4,.63s-.08,.32-.24,.32c.16,0,.24-.16-.08-.32,0,0-.08-.08-.16-.08h-.08c-.71-.4-1.74-.79-3.09-1.19h0c-.32-.08-.63-.16-.95-.24h0c-.87-.24-1.9-.48-2.93-.71v-.71c.08,.08,.24,.08,.32,.08h.08l.08,.08h.32c0,.08,.08,.08,.08,.08h.24s0,.08,.08,.08h.24s.08,0,.08,.08h.24c.08,0,.08,.08,.08,.08h.32q.08,.08,.16,.08c.32,.08,.71,.16,1.03,.24q.08,.08,.16,.08c.08,0,.16,0,.32,.08,.16,0,.24,.08,.4,.08,.48,.16,.95,.32,1.27,.48,.48,.16,.79,.24,1.03,.4h.08Zm-22.28-13.56h0v-.4q0-.07,.08-.07h.55q.08,0,.08,.07v.4c8.32,.48,15.54,4.76,20.06,11.18,.32,.16,.55,.32,.79,.48h0s.4,.71,.48,.79c.16,.16,.08,.32-.08,.4,.08-.08,.16-.16-.16-.4-.08,0-.16-.08-.24-.16l-.08-.08h-.08c-.32-.24-.71-.4-1.19-.64h-.16c0-.08-.08-.08-.08-.08h-.08l-.08-.08h-.16q-.08-.08-.16-.08c-.08,0-.08-.08-.16-.08h-.16v-.08c-.08,0-.16,0-.32-.08h-.16q-.08-.08-.16-.08h0q-.08,0-.16-.08h-.16c-.08,0-.08-.08-.16-.08h-.16q0-.08-.08-.08c-.4-.08-.79-.24-1.27-.32-.08,0-.16-.08-.24-.08h-.24c-.08-.08-.16-.08-.24-.08h0c-.08,0-.16-.08-.16-.08h0v-1.67c.4,.4,.79,.87,1.19,1.27,.95,.24,1.9,.56,2.62,.79-4.36-5.71-11.1-9.52-18.79-9.92v1.43c5.15,.32,9.91,2.3,13.63,5.32h-1.11c-3.49-2.62-7.85-4.28-12.53-4.6v4.6h-.71v-7.45Zm-17.36,42.66h0c3.81,3.81,8.8,6.34,14.43,6.82l.16,.71c-7.21-.63-13.48-4.36-17.44-9.91,.4,0,.71,.08,.87,.08,.55,.79,1.27,1.51,1.9,2.3q.08,0,.08,0Zm-7.93-26.49h0c-.08-.24,0-.4,0-.48l.4-.63h0c.08-.08,.24-.16,.4-.16h.24c.16,0,.32,0,.55,.08,.4,.08,.95,.16,1.51,.32,.16,.08,.4,.16,.63,.24,.08,0,.16,0,.24,.08h.16l.08,.08h.16l.08,.08h.16l.08,.08h.16c0,.08,.08,.08,.08,.08h.08s.08,0,.08,.08h.16c0,.08,.08,.08,.08,.08h.16v.08h.16l.08,.08h.08s.08,0,.08,.08h.16q.08,.08,.16,.08h0s.08,0,.08,.08h.16s0,.08,.08,.08h.08c.08,0,.08,.08,.16,.08h0q.08,0,.16,.08h.08c.08,0,.08,.08,.08,.08h.08s.08,0,.08,.08h.16l.08,.08h.08l.08,.08h.08s.08,0,.08,.08h.16q0,.08,.08,.08h.16v.79c-1.9-.79-3.49-1.43-4.76-1.82-.24-.08-.4-.16-.64-.24h0c-.55-.16-1.11-.24-1.51-.32h-.71c-.24,0-.48,.08-.55,.56h0Zm22.43-13.24h0c-4.44,.4-8.56,1.98-11.89,4.52h-1.11c3.65-2.93,8.16-4.84,13.08-5.23l-.08,.71Zm-18.47,8.09h0v0Zm-1.51,.71h.24c.08-.08,.24-.08,.4-.08h.4c0,.08,.08,.08,.08,.08h.4c.08,.08,.16,.08,.24,.08h.16c.08,.08,.16,.08,.32,.08,.32,.08,.71,.24,1.11,.32l.08,.08h.16v.08c.16,0,.24,.08,.4,.08h.08l.08,.08h.16q.08,.08,.16,.08h.08c0,.08,.08,.08,.08,.08h.08c.08,0,.08,.08,.08,.08h.08c.08,0,.16,.08,.24,.08h0q.08,.08,.16,.08h.08l.08,.08h.08c.08,0,.16,.08,.24,.08v-1.51c-.24,.08-.48,.16-.71,.16-.16,.08-.32,.08-.55,.16,0,0-.08-.08-.16-.08h-.08l-.08-.08h-.16c0-.08-.08-.08-.08-.08h-.08c-.4-.16-.79-.24-1.19-.4h-.24q-.08-.08-.16-.08h.16c.08-.08,.16-.08,.16-.08h0c.08,0,.16-.08,.16-.08,.16,0,.24-.08,.4-.08h0s.08,0,.16-.08h0c.71-.16,1.51-.4,2.46-.63v-.71h0v-.95c-.48,.48-.87,.87-1.27,1.27-1.03,.32-1.9,.56-2.69,.87,4.36-5.63,11.02-9.44,18.47-10l.16-.71c-8.16,.55-15.22,4.76-19.66,11.02-.4,0-.64,.08-.87,.24h0l-.4,.71v.32c0-.24,.16-.48,.55-.56Z"/>
  <path id="path194" class="cls-9" d="M48.26,56.44h0c.32-2.22,.87-4.28,1.74-6.26-.48-.4-.95-.63-1.27-.79-1.11,2.38-1.74,5.07-1.98,7.85,.4-.24,.95-.55,1.51-.79Zm45.98,12.69h0c.4,.48,.79,.87,1.03,1.27,1.35-2.93,2.22-6.11,2.38-9.52-.55-.16-1.03-.24-1.43-.24-.16,3.01-.87,5.87-1.98,8.49Zm-43.68,.95h0c-1.43-2.86-2.3-6.11-2.46-9.44-.4,0-.87,.08-1.43,.32,.16,3.49,1.11,6.82,2.54,9.83,.4-.24,.79-.48,1.35-.71Zm23.07,13.4h0v1.51c7.53-.4,14.19-4.12,18.63-9.67-.32-.24-.79-.48-1.35-.71-4.12,5.08-10.31,8.49-17.28,8.88Zm-20.93-9.91h0c-.48,0-1.03,.08-1.66,.32,4.28,6.26,11.26,10.55,19.34,11.1l-.24-1.51c-7.21-.63-13.48-4.36-17.44-9.91Zm20.93-38.15h0c5.15,.32,9.91,2.3,13.63,5.32h1.35v1.11c.4,.4,.79,.87,1.19,1.27,.95,.24,1.9,.56,2.62,.79-4.36-5.71-11.1-9.52-18.79-9.92v1.43Zm21.24,12.38h0c-.71-.08-1.27-.16-1.74-.16,1.51,2.7,2.54,5.63,2.93,8.8,.55,.24,1.11,.55,1.51,.79-.24-3.41-1.19-6.58-2.7-9.44Zm-43.05-3.81h0c4.36-5.63,11.02-9.44,18.47-10l-.16,1.51c-4.92,.4-9.43,2.3-13.08,5.23h-1.27v1.11c-.48,.48-.87,.87-1.27,1.27-1.03,.32-1.9,.56-2.69,.87Z"/>
  <path id="path204" class="cls-9" d="M94.47,45.58h0c-1.19-.79-3.57-1.51-5.87-2.06v1.43c2.85,.64,5.47,1.35,6.58,1.9l-.71-1.27Z"/>
  <path id="path214" class="cls-9" d="M54.52,45.18h0c.4-.08,.79-.24,1.27-.32v-1.27c-1.35,.24-2.54,.55-3.49,.87,.63,.16,1.43,.4,2.22,.71Z"/>
  <path id="path224" class="cls-5" d="M55.79,55.17h0c-.32,.08-.55,.08-.79,.16-3.65,.71-7.85,1.98-9.04,3.25l-.08,.08v1.43c1.03-1.03,4.6-2.3,9.04-3.17,.24-.08,.55-.16,.87-.24v-1.51Z"/>
  <path id="path234" class="cls-5" d="M98.36,58.58h0c-1.19-1.27-5.39-2.54-9.04-3.25-.24-.08-.48-.08-.71-.16v1.51c.24,.08,.55,.16,.79,.24,4.44,.87,8.01,2.06,9.04,3.09v-1.35c-.08,0-.08-.08-.08-.08Z"/>
  <path id="path244" class="cls-5" d="M56.98,68.89h0c-.95,.16-1.9,.4-2.85,.71-2.22,.63-4.6,1.59-5.07,2.38h0l.79,1.35c.48-.63,2.14-1.51,4.76-2.3,1.03-.24,2.06-.48,3.09-.71-.24-.48-.48-.95-.71-1.43Z"/>
  <path id="path254" class="cls-5" d="M72.91,33.13h-1.51v7.61h1.51v-7.61Z"/>
  <path id="path264" class="cls-5" d="M72.12,79.04h-.71v6.9h1.51v-6.9h-.79Z"/>
  <path id="path274" class="cls-5" d="M95.11,71.43h0c-.95-1.59-3.65-3.81-6.74-6.19-.24,1.35-.63,2.7-1.19,3.97,3.49,2.54,5.95,4.68,6.26,5.79l1.9-3.01c0-.16-.08-.32-.24-.56Z"/>
  <path id="path284" class="cls-5" d="M55.79,46.37h0c-2.3-.95-4.04-1.43-5.07-1.43h0c-.32,0-.48,.08-.64,.08l-1.66,3.17h.24c1.19,0,3.81,.87,7.13,2.3v-4.12Z"/>
  <path id="path294" d="M92.97,75.63h0s-.08,0-.08-.08h0c0-.08,0-.16-.08-.24-.24-.4-.79-1.19-1.74-1.98,0-.08-.08-.08-.08-.08h0c-.95-.95-2.38-2.06-4.12-3.41-.79,1.66-1.82,3.09-3.09,4.36-1.51,1.51-3.25,2.7-5.23,3.49,2.54-.16,4.91-.48,6.9-.95,.71-.08,1.82-.32,3.17-.63,.55-.56,1.11-1.11,1.59-1.74,1.43,.4,2.3,1.11,2.54,1.43-.16,.16-.24,.24-.4,.48h.16c.08,0,.16,0,.16-.08,.16,0,.4-.08,.32-.55h0Zm5.63-14.51h-.08v-.08h0s0-.08-.08-.08h0l-.08-.08c-.08-.08-.08-.16-.16-.24-.48-.32-1.19-.79-2.14-1.11-.16-.08-.32-.16-.48-.24v.32c-2.38,.71-5.23,1.27-6.98,1.59v1.43c0,.48-.08,.95-.08,1.43,2.7-.4,4.99-.95,6.82-1.43,.08-.63,.16-1.35,.16-1.98,.55-.08,1.66-.08,2.85,.55-.08,.08-.08,.24-.08,.4,.16-.08,.24-.16,.32-.24v-.24h0Zm-3.65,11.58h.24c.08-.08,.24-.32,.16-.71l-.4,.71Zm-.08-26.57h0c.08-.08,.08-.16-.16-.4-.08,0-.16-.08-.24-.16l.32,.55h.08Zm3.73,12.93h0c.08-.08,0-.24-.16-.4v.4h.16Zm-9.99-11.81h0v3.01c1.74-.4,3.33-.79,4.52-1.11-.24-.48-.48-1.03-.79-1.51,.4,.08,1.74-.08,3.41,.4h0c0,.08,.08,.16,.08,.24,.08,0,.08-.08,.08-.08h.08c.08,0,.16-.16-.16-.32,0,0-.08-.08-.16-.08-.95-.48-2.3-.95-4.12-1.43,0,.08,.08,.08,.08,.16-.87,.24-1.9,.48-3.01,.71Z"/>
  <path id="path304" d="M49.05,71.98h0c-.08,.08-.08,.16-.08,.24,0,0,0,.08,.08,.08h.16l-.16-.32Zm11.49,2.22h0c0-.08-.08-.16-.16-.16-2.46-.4-4.99-.87-7.61-1.51,0,0-.08,0-.08-.08-1.19,.48-2.14,.95-2.46,1.51-.08,.08-.16,.24,0,.32h0c.16,.08,.32,.16,.4,.16-.08-.08-.16-.24-.24-.32,1.43-.71,2.85-.55,3.17-.48,.55,.79,1.27,1.59,1.98,2.3,2.85,.71,6.26,1.35,10.07,1.66-1.9-.79-3.57-1.98-5.07-3.41Zm9.91,11.42h0c.08,0,.16,.08,.24,.08v-2.85c-.24,0-.48-.08-.71-.08l.48,2.85Zm-14.67-23h0v-1.43c-1.82-.32-4.68-.87-6.98-1.59v-.32c-.32,.08-.55,.24-.79,.32-.24,.08-.48,.16-.63,.24v.08h-.08c-.48,.24-.95,.55-1.27,.79,0,.08-.08,.08-.08,.16l-.08,.08h0l-.08,.08h0v.08h-.08v.08h0v.08h0v.08h0v.08c.08,0,.16,.08,.32,.16,0-.16,0-.32-.08-.4,1.27-.63,2.38-.63,2.85-.55,0,.63,.08,1.35,.16,1.98,1.82,.48,4.2,1.03,6.82,1.43v-1.43h0Zm-8.01-12.77h0c.08-.24,.16-.48,.32-.71,.32,.08,1.51,.48,2.38,1.59-.24,.48-.4,.95-.55,1.43,.95,.79,2.14,1.67,3.57,2.78,.48-.16,.95-.24,1.43-.32,.24-.08,.55-.08,.87-.16v-3.17c-1.82-.79-3.33-1.43-4.6-1.82h-.16c-1.11-.4-2.06-.56-2.62-.56h-.4c-.16,.08-.32,.16-.4,.56v0c0,.08,.08,.24,.16,.4Zm22.91-16.57h-.24l-.48,2.93c.24-.08,.48-.08,.71-.08v-2.85Zm-24.81,25.77h0v-.4c-.16,.16-.24,.32-.16,.4h.16Zm3.73-13.16h0c0-.16-.08-.24-.08-.32,0-.24,.16-.48,.55-.56l-.48,.87Z"/>
  <path id="path314" class="cls-2" d="M72.12,79.28h0c-9.99,0-16.65-8.41-16.65-16.26v-22.36h33.22v22.36c0,7.85-6.66,16.26-16.57,16.26Z"/>
  <path id="path324" class="cls-4" d="M81.32,63.02h0c0,3.81-3.49,8.88-9.2,8.88s-9.2-5.08-9.2-8.88v-14.99h18.39v14.99Zm-24.73-21.25h0v21.25c0,7.3,6.26,15.15,15.54,15.15s15.46-7.85,15.46-15.15v-21.25h-31Z"/>
  <path id="path334" class="cls-5" d="M58.88,46.61h0c.08-1.19,.95-1.43,.95-1.43,0,0,.87,.24,.95,1.43h-1.9Zm2.93,0h0l-.16-1.35c.16-.08,.32-.24,.32-.4s-.16-.32-.4-.32h0l-.08-.63h.16c.08,0,.08-.08,.08-.08v-.48h-.16v.24h-.32v-.24h-.24v.24h-.32v-.24h-.16v.48s0,.08,.08,.08h.16l-.08,.63h-.4l-.08-1.35h.16l.08-.08v-.48h-.24v.24h-.32v-.24h-.16v.24h-.32v-.24h-.24v.48s.08,0,.08,.08h.16l-.08,1.35h-.4l-.08-.63h.16l.08-.08v-.48h-.24v.24h-.24v-.24h-.24v.24h-.32v-.24h-.16v.48s0,.08,.08,.08h.08v.63h-.08c-.16,0-.32,.16-.32,.32s.16,.32,.32,.32l-.16,1.43h0c-.24,0-.4,.16-.4,.4,0,.16,.16,.32,.4,.32h3.96c.24,0,.4-.16,.4-.32,0-.24-.16-.4-.4-.4Z"/>
  <path id="path344" class="cls-5" d="M71.17,46.61h0c.08-1.19,.95-1.43,.95-1.43,0,0,.95,.24,.95,1.43h-1.9Zm3.01,0h-.08l-.16-1.35c.24-.08,.32-.24,.32-.4s-.16-.32-.32-.32h-.08v-.63h.16v-.55h-.16v.24h-.32v-.24h-.24v.24h-.24v-.24h-.24v.48l.08,.08h.16l-.08,.63h-.32l-.08-1.35h.08l.08-.08v-.48h-.24v.24h-.24v-.24h-.24v.24h-.32v-.24h-.16v.48l.08,.08h.08l-.08,1.35h-.4l-.08-.63h.16c.08,0,.08-.08,.08-.08v-.48h-.24v.24h-.24v-.24h-.24v.24h-.32v-.24h-.16v.48s0,.08,.08,.08h.16l-.08,.63h0c-.24,0-.4,.16-.4,.32s.16,.32,.32,.32l-.08,1.43h-.08c-.24,0-.32,.16-.32,.4,0,.16,.08,.32,.32,.32h4.04c.16,0,.32-.16,.32-.32,0-.24-.16-.4-.32-.4h0Z"/>
  <path id="path354" class="cls-5" d="M83.38,46.61h0c.08-1.19,.95-1.43,.95-1.43h0s.95,.24,.95,1.43h-1.9Zm3.01,0h-.08l-.16-1.35c.16-.08,.32-.24,.32-.4s-.16-.32-.32-.32h-.08v-.63h.08c.08,0,.08-.08,.08-.08v-.48h-.16v.24h-.32v-.24h-.24v.24h-.24v-.24h-.24v.48s0,.08,.08,.08h.16l-.08,.63h-.32l-.16-1.35h.16l.08-.08v-.48h-.24v.24h-.32v-.24h-.16v.24h-.32v-.24h-.24v.48s.08,0,.08,.08h.16l-.08,1.35h-.4l-.08-.63h.16l.08-.08v-.48h-.24v.24h-.24v-.24h-.24v.24h-.32v-.24h-.16v.48s0,.08,.08,.08h.08v.63h0c-.24,0-.4,.16-.4,.32s.16,.32,.32,.32l-.08,1.43h-.08c-.24,0-.4,.16-.4,.4,0,.16,.16,.32,.4,.32h4.04c.16,0,.32-.16,.32-.32,0-.24-.16-.4-.32-.4Z"/>
  <path id="path364" class="cls-5" d="M58.88,59.3h0c.08-1.19,.95-1.43,.95-1.43,0,0,.87,.24,.95,1.43h-1.9Zm2.93,0h0l-.16-1.43c.16,0,.32-.08,.32-.32,0-.16-.16-.32-.4-.32h0l-.08-.63h.16q.08,0,.08-.08v-.48h-.16v.24h-.32v-.24h-.24v.24h-.32v-.24h-.16v.48s0,.08,.08,.08h.16l-.08,.63h-.4l-.08-1.35h.16l.08-.08v-.48h-.24v.24h-.32v-.24h-.16v.24h-.32v-.24h-.24v.48l.08,.08h.16l-.08,1.35h-.4l-.08-.63h.16s.08,0,.08-.08v-.48h-.24v.24h-.24v-.24h-.24v.24h-.32v-.24h-.16v.48s0,.08,.08,.08h.08v.63h-.08c-.16,0-.32,.16-.32,.32s.16,.32,.32,.32l-.16,1.43h0c-.24,0-.4,.16-.4,.4,0,.16,.16,.32,.4,.32h3.96c.24,0,.4-.16,.4-.32,0-.24-.16-.4-.4-.4Z"/>
  <path id="path374" class="cls-5" d="M83.38,59.3h0c.08-1.19,.95-1.43,.95-1.43h0s.95,.24,.95,1.43h-1.9Zm3.01,0h-.08l-.16-1.43c.16,0,.32-.08,.32-.32,0-.16-.16-.32-.32-.32h-.08v-.63h.08q.08,0,.08-.08v-.48h-.16v.24h-.32v-.24h-.24v.24h-.24v-.24h-.24v.48s0,.08,.08,.08h.16l-.08,.63h-.32l-.16-1.35h.16l.08-.08v-.48h-.24v.24h-.32v-.24h-.16v.24h-.32v-.24h-.24v.48l.08,.08h.16l-.08,1.35h-.4l-.08-.63h.16s.08,0,.08-.08v-.48h-.24v.24h-.24v-.24h-.24v.24h-.32v-.24h-.16v.48s0,.08,.08,.08h.08v.63h0c-.24,0-.4,.16-.4,.32s.16,.32,.32,.32l-.08,1.43h-.08c-.24,0-.4,.16-.4,.4,0,.16,.16,.32,.4,.32h4.04c.16,0,.32-.16,.32-.32,0-.24-.16-.4-.32-.4Z"/>
  <path id="path384" class="cls-5" d="M63.32,72.54h0c-.79-.87-.32-1.74-.32-1.74,0,0,.79-.48,1.66,.4l-1.35,1.35Zm2.14-2.14h0l-.08,.08-1.11-.95c.16-.16,.16-.32,0-.48-.16-.08-.4-.08-.48,0l-.08,.08-.4-.4v-.08l.08-.08v-.08l-.32-.32-.16,.16,.16,.16-.24,.24-.16-.24-.16,.16,.16,.16-.16,.24-.16-.16-.16,.16,.32,.32h.08l.08-.08,.08-.08,.4,.48-.32,.32-1.03-.95,.16-.08v-.08l-.32-.32-.16,.16,.16,.16-.24,.24-.16-.16-.16,.16,.16,.08-.16,.24-.16-.16-.16,.16,.32,.32h.08l.08-.08,.87,1.03-.24,.24-.48-.4h0l.08-.08c0-.08,.08-.08,0-.08l-.32-.32-.16,.08,.16,.16-.16,.24-.16-.16-.16,.16,.16,.16-.24,.16-.16-.08-.16,.08,.32,.32q.08,.08,.16,0l.08-.08h0l.4,.48h0c-.16,.16-.16,.4,0,.48,.16,.16,.32,.16,.48,.08l.87,1.03v.08c-.16,.16-.16,.4,0,.48,.08,.16,.32,.16,.48,0l2.85-2.86c.16-.08,.16-.32,0-.48-.16-.16-.4-.16-.48,0h0Z"/>
  <path id="path394" class="cls-5" d="M79.65,71.19h0c.87-.87,1.74-.4,1.74-.4,0,0,.4,.87-.4,1.74l-1.35-1.35Zm-1.19-.79h0c-.16,.16-.16,.4,0,.48l2.85,2.86c.08,.16,.32,.16,.48,0,.16-.08,.16-.32,0-.48l-.08-.08,.95-1.03c.16,.08,.32,.08,.48-.08,.16-.08,.16-.32,0-.48h-.08l.48-.48h0l.08,.08c0,.08,.08,.08,.08,0l.32-.32-.16-.08-.16,.08-.16-.16,.16-.16-.16-.16-.16,.16-.24-.24,.16-.16-.16-.08-.32,.32v.08l.08,.08h.08l-.48,.4-.32-.24,.95-1.03,.08,.08h.08l.32-.32-.16-.16-.16,.16-.24-.24,.16-.08-.16-.16-.08,.16-.24-.24,.16-.16-.16-.16-.32,.32v.08l.08,.08-1.03,.95-.24-.32,.4-.48v.08l.08,.08h.16l.32-.32-.16-.16-.16,.16-.24-.24,.16-.16-.16-.16-.16,.24-.16-.24,.16-.16-.16-.16-.32,.32c-.08,0,0,.08,0,.08l.08,.08v.08l-.48,.4v-.08c-.16-.08-.4-.08-.48,0-.16,.16-.16,.32-.08,.48l-1.03,.95-.08-.08c-.16-.16-.32-.16-.48,0h0Z"/>
  <path id="path404" class="cls-3" d="M73.23,67.23h0c-.24,0-.4,.16-.4,.4s.16,.4,.4,.4,.4-.16,.4-.4-.16-.4-.4-.4Z"/>
  <path id="path414" class="cls-3" d="M71.01,67.23h0c-.24,0-.4,.16-.4,.4s.16,.4,.4,.4,.4-.16,.4-.4-.16-.4-.4-.4Z"/>
  <path id="path424" class="cls-8" d="M72.12,55.41h0c.87,0,1.98-.79,1.98-2.22v-2.93h-4.04v2.93c0,1.43,1.11,2.22,2.06,2.22Z"/>
  <path id="path434" class="cls-3" d="M71.48,51.45h0c0-.24-.16-.48-.48-.48-.24,0-.4,.24-.4,.48s.16,.48,.4,.48c.32,0,.48-.24,.48-.48Z"/>
  <path id="path444" class="cls-3" d="M72.52,52.48h0c0-.24-.16-.48-.4-.48-.32,0-.48,.24-.48,.48s.16,.48,.48,.48c.24,0,.4-.24,.4-.48Z"/>
  <path id="path454" class="cls-3" d="M73.63,53.51h0c0-.24-.24-.48-.48-.48s-.48,.24-.48,.48c0,.32,.24,.48,.48,.48s.48-.16,.48-.48Z"/>
  <path id="path464" class="cls-3" d="M73.15,51.92h0c.24,0,.48-.24,.48-.48s-.24-.48-.48-.48-.48,.24-.48,.48,.24,.48,.48,.48Z"/>
  <path id="path474" class="cls-3" d="M71.01,53.98h0c.32,0,.48-.16,.48-.48,0-.24-.16-.48-.48-.48-.24,0-.4,.24-.4,.48,0,.32,.16,.48,.4,.48Z"/>
  <path id="path484" class="cls-8" d="M72.12,62.47h0c.87,0,1.98-.79,1.98-2.22v-2.93h-4.04v2.93c0,1.43,1.11,2.22,2.06,2.22Z"/>
  <path id="path494" class="cls-3" d="M71.48,58.5h0c0-.24-.16-.48-.48-.48-.24,0-.4,.24-.4,.48s.16,.48,.4,.48c.32,0,.48-.24,.48-.48Z"/>
  <path id="path504" class="cls-3" d="M72.52,59.53h0c0-.24-.16-.48-.4-.48-.32,0-.48,.24-.48,.48s.16,.48,.48,.48c.24,0,.4-.24,.4-.48Z"/>
  <path id="path514" class="cls-3" d="M73.63,60.57h0c0-.24-.24-.48-.48-.48s-.48,.24-.48,.48,.24,.48,.48,.48,.48-.24,.48-.48Z"/>
  <path id="path524" class="cls-3" d="M73.15,58.98h0c.24,0,.48-.24,.48-.48s-.24-.48-.48-.48-.48,.24-.48,.48,.24,.48,.48,.48Z"/>
  <path id="path534" class="cls-3" d="M71.01,61.04h0c.32,0,.48-.24,.48-.48s-.16-.48-.48-.48c-.24,0-.4,.24-.4,.48s.16,.48,.4,.48Z"/>
  <path id="path544" class="cls-8" d="M66.49,62.47h0c.87,0,1.98-.79,1.98-2.22v-2.93h-4.04v2.93c0,1.43,1.11,2.22,2.06,2.22Z"/>
  <path id="path554" class="cls-3" d="M65.86,58.5h0c0-.24-.16-.48-.48-.48-.24,0-.48,.24-.48,.48s.24,.48,.48,.48c.32,0,.48-.24,.48-.48Z"/>
  <path id="path564" class="cls-3" d="M66.89,59.53h0c0-.24-.16-.48-.4-.48-.32,0-.48,.24-.48,.48s.16,.48,.48,.48c.24,0,.4-.24,.4-.48Z"/>
  <path id="path574" class="cls-3" d="M67.92,60.57h0c0-.24-.16-.48-.4-.48-.32,0-.48,.24-.48,.48s.16,.48,.48,.48c.24,0,.4-.24,.4-.48Z"/>
  <path id="path584" class="cls-3" d="M67.52,58.98h0c.24,0,.4-.24,.4-.48s-.16-.48-.4-.48c-.32,0-.48,.24-.48,.48s.16,.48,.48,.48Z"/>
  <path id="path594" class="cls-3" d="M65.38,61.04h0c.32,0,.48-.24,.48-.48s-.16-.48-.48-.48c-.24,0-.48,.24-.48,.48s.24,.48,.48,.48Z"/>
  <path id="path604" class="cls-8" d="M77.75,62.47h0c.87,0,2.06-.79,2.06-2.22v-2.93h-4.12v2.93c0,1.43,1.19,2.22,2.06,2.22Z"/>
  <path id="path614" class="cls-3" d="M77.11,58.5h0c0-.24-.16-.48-.48-.48-.24,0-.4,.24-.4,.48s.16,.48,.4,.48c.32,0,.48-.24,.48-.48Z"/>
  <path id="path624" class="cls-3" d="M78.22,59.53h0c0-.24-.24-.48-.48-.48-.32,0-.48,.24-.48,.48s.16,.48,.48,.48c.24,0,.48-.24,.48-.48Z"/>
  <path id="path634" class="cls-3" d="M79.25,60.57h0c0-.24-.24-.48-.48-.48s-.48,.24-.48,.48,.24,.48,.48,.48,.48-.24,.48-.48Z"/>
  <path id="path644" class="cls-3" d="M78.78,58.98h0c.24,0,.48-.24,.48-.48s-.24-.48-.48-.48-.48,.24-.48,.48,.24,.48,.48,.48Z"/>
  <path id="path654" class="cls-3" d="M76.64,61.04h0c.32,0,.48-.24,.48-.48s-.16-.48-.48-.48c-.24,0-.4,.24-.4,.48s.16,.48,.4,.48Z"/>
  <path id="path664" class="cls-8" d="M72.12,69.45h0c.87,0,1.98-.71,1.98-2.14v-2.93h-4.04v2.93c0,1.43,1.11,2.14,2.06,2.14Z"/>
  <path id="path674" class="cls-3" d="M71.48,65.56h0c0-.24-.16-.48-.48-.48-.24,0-.4,.24-.4,.48s.16,.48,.4,.48c.32,0,.48-.24,.48-.48Z"/>
  <path id="path684" class="cls-3" d="M72.52,66.59h0c0-.24-.16-.48-.4-.48-.32,0-.48,.24-.48,.48s.16,.48,.48,.48c.24,0,.4-.24,.4-.48Z"/>
  <path id="path694" class="cls-3" d="M73.63,67.62h0c0-.24-.24-.48-.48-.48s-.48,.24-.48,.48,.24,.48,.48,.48,.48-.24,.48-.48Z"/>
  <path id="path704" class="cls-3" d="M73.15,66.04h0c.24,0,.48-.24,.48-.48s-.24-.48-.48-.48-.48,.24-.48,.48,.24,.48,.48,.48Z"/>
  <path id="path714" class="cls-3" d="M71.01,68.1h0c.32,0,.48-.24,.48-.48s-.16-.48-.48-.48c-.24,0-.4,.24-.4,.48s.16,.48,.4,.48Z"/>
</svg>